<svg width="100" height="100" viewBox="0 0 100 100" fill="none" xmlns="http://www.w3.org/2000/svg">
<circle cx="50" cy="50" r="50" fill="#87D2D2"/>
<path d="M50.9167 23.7501C36.4209 23.7501 24.6667 35.5042 24.6667 50.0001H15.9167L27.2626 61.3459L27.4667 61.7542L39.2501 50.0001H30.5001C30.5001 38.7126 39.6292 29.5834 50.9167 29.5834C62.2042 29.5834 71.3334 38.7126 71.3334 50.0001C71.3334 61.2876 62.2042 70.4167 50.9167 70.4167C45.2876 70.4167 40.1834 68.1126 36.5084 64.4084L32.3667 68.5501C37.1209 73.3042 43.6542 76.2501 50.9167 76.2501C65.4126 76.2501 77.1667 64.4959 77.1667 50.0001C77.1667 35.5042 65.4126 23.7501 50.9167 23.7501ZM48.0001 38.3334V52.9167L60.3959 60.2667L62.6418 56.5334L52.3751 50.4376V38.3334H48.0001Z" fill="#064142"/>
</svg>
