<svg width="100" height="100" viewBox="0 0 100 100" fill="none" xmlns="http://www.w3.org/2000/svg">
<circle cx="50" cy="50" r="50" fill="#87D2D2"/>
<path d="M70.4444 30.5556H64.8889V25H37.1111V30.5556H31.5556C28.5 30.5556 26 33.0556 26 36.1111V38.8889C26 45.9722 31.3333 51.75 38.1944 52.6111C39.9444 56.7778 43.6944 59.9167 48.2222 60.8333V69.4444H37.1111V75H64.8889V69.4444H53.7778V60.8333C58.3056 59.9167 62.0556 56.7778 63.8056 52.6111C70.6667 51.75 76 45.9722 76 38.8889V36.1111C76 33.0556 73.5 30.5556 70.4444 30.5556ZM31.5556 38.8889V36.1111H37.1111V46.7222C33.8889 45.5556 31.5556 42.5 31.5556 38.8889ZM51 55.5556C46.4167 55.5556 42.6667 51.8056 42.6667 47.2222V30.5556H59.3333V47.2222C59.3333 51.8056 55.5833 55.5556 51 55.5556ZM70.4444 38.8889C70.4444 42.5 68.1111 45.5556 64.8889 46.7222V36.1111H70.4444V38.8889Z" fill="#064142"/>
</svg>
